<svg width="1512" height="788" viewBox="0 0 1512 788" fill="none" xmlns="http://www.w3.org/2000/svg">
<path d="M107.483 14.0593L81.646 28.8708C81.646 27.723 81.8675 26.5751 81.8675 25.4642V18.0584C81.8675 4.80212 72.5661 -0.455987 61.1239 6.06108C56.1858 9.08461 51.9658 13.1539 48.7589 17.9844C46.8765 1.28437 33.9948 -4.93647 17.9758 4.24668C0.849403 14.1704 -13.0658 38.3132 -13.0658 58.1977V69.3063C-13.1185 73.8391 -12.1335 78.3237 -10.1868 82.4145L-31.484 94.7451C-34.8336 96.9369 -37.6217 99.8893 -39.6224 103.363C-41.6231 106.837 -42.7802 110.735 -43 114.741C-43 122.146 -37.8326 125.109 -31.484 121.406L107.483 40.7201C110.835 38.5304 113.624 35.5786 115.625 32.1043C117.626 28.6299 118.782 24.7311 118.999 20.7245C119.073 13.3928 113.906 10.3935 107.483 14.0593Z" fill="#EBEBEB"/>
<path d="M1527.48 62.0593L1501.65 76.8708C1501.65 75.723 1501.87 74.5751 1501.87 73.4642V66.0584C1501.87 52.8021 1492.57 47.544 1481.12 54.0611C1476.19 57.0846 1471.97 61.1539 1468.76 65.9844C1466.88 49.2844 1453.99 43.0635 1437.98 52.2467C1420.85 62.1704 1406.93 86.3132 1406.93 106.198V117.306C1406.88 121.839 1407.87 126.324 1409.81 130.415L1388.52 142.745C1385.17 144.937 1382.38 147.889 1380.38 151.363C1378.38 154.837 1377.22 158.735 1377 162.741C1377 170.146 1382.17 173.109 1388.52 169.406L1527.48 88.7201C1530.83 86.5304 1533.62 83.5786 1535.63 80.1043C1537.63 76.6299 1538.78 72.7311 1539 68.7245C1539.07 61.3928 1533.91 58.3935 1527.48 62.0593Z" fill="#EBEBEB"/>
<path d="M299.844 232.041L283.523 241.503C283.568 240.768 283.568 240.03 283.523 239.295V234.595C283.523 226.08 277.616 222.61 270.342 226.868C267.213 228.827 264.532 231.439 262.477 234.532C261.295 223.809 252.995 219.835 242.922 225.733C237.169 229.527 232.381 234.648 228.951 240.678C225.52 246.707 223.543 253.475 223.181 260.427V267.587C223.12 270.455 223.694 273.3 224.86 275.913L211.306 283.83C209.178 285.243 207.407 287.144 206.138 289.379C204.869 291.615 204.137 294.122 204 296.699C204 301.43 207.264 303.354 211.306 300.988L299.689 249.199C301.816 247.793 303.587 245.898 304.856 243.667C306.125 241.437 306.858 238.934 306.995 236.362C307.15 231.599 303.886 229.675 299.844 232.041Z" fill="#EBEBEB"/>
<path d="M1176.67 112.217L1164.27 119.302C1164.31 118.752 1164.31 118.2 1164.27 117.649V114.059C1164.27 107.683 1159.79 105.085 1154.26 108.297C1151.87 109.75 1149.83 111.709 1148.29 114.036C1147.39 106.006 1141.2 103.007 1133.43 107.423C1129.06 110.267 1125.43 114.103 1122.83 118.617C1120.23 123.132 1118.73 128.198 1118.46 133.401V138.762C1118.4 140.909 1118.83 143.041 1119.71 144.997L1109.44 150.925C1107.82 151.982 1106.47 153.404 1105.5 155.078C1104.53 156.752 1103.97 158.63 1103.86 160.561C1103.86 164.103 1106.37 165.544 1109.44 163.773L1176.58 124.994C1178.19 123.941 1179.54 122.522 1180.5 120.852C1181.47 119.182 1182.02 117.308 1182.13 115.382C1182.22 111.887 1179.74 110.446 1176.67 112.217Z" fill="#EBEBEB"/>
<path d="M371.525 286.754L187.338 393.1V401.956L356.174 499.422L540.361 393.1V384.244L371.525 286.754Z" fill="#23A6DF"/>
<path opacity="0.15" d="M187.338 393.1L356.174 490.566V499.422L187.338 401.956V393.1Z" fill="black"/>
<path opacity="0.1" d="M356.174 490.566L540.361 384.244V393.1L356.174 499.422V490.566Z" fill="black"/>
<path d="M523.973 352.267L516.694 366.609L517.873 367.207L525.152 352.866L523.973 352.267Z" fill="#455A64"/>
<path d="M510.52 351.143L509.395 351.839L516.493 363.305L517.618 362.608L510.52 351.143Z" fill="#455A64"/>
<path d="M518.397 349.81V384.385C518.393 384.481 518.361 384.574 518.307 384.653C518.253 384.732 518.178 384.795 518.09 384.834C517.851 384.962 517.583 385.029 517.311 385.029C517.039 385.029 516.771 384.962 516.532 384.834C516.44 384.798 516.36 384.737 516.301 384.658C516.243 384.578 516.208 384.484 516.201 384.385V349.81H518.397Z" fill="#455A64"/>
<path d="M544.541 339.065C544.541 342.241 543.599 345.346 541.835 347.987C540.07 350.628 537.562 352.686 534.627 353.902C531.693 355.117 528.464 355.435 525.349 354.816C522.233 354.196 519.372 352.666 517.126 350.42C514.88 348.175 513.351 345.313 512.731 342.198C512.111 339.083 512.429 335.854 513.645 332.919C514.86 329.985 516.919 327.477 519.56 325.712C522.2 323.947 525.305 323.005 528.482 323.005C532.739 323.012 536.82 324.706 539.83 327.716C542.841 330.726 544.535 334.807 544.541 339.065Z" fill="#23A6DF"/>
<path opacity="0.2" d="M533.512 334.955C535.59 328.437 537.787 325.887 536.393 325.084C533.734 323.574 530.699 322.856 527.645 323.012C524.591 323.168 521.646 324.193 519.154 325.966C516.663 327.74 514.73 330.187 513.582 333.021C512.434 335.855 512.119 338.958 512.674 341.965C513.229 344.972 514.631 347.758 516.715 349.996C518.799 352.233 521.479 353.83 524.439 354.596C527.399 355.363 530.516 355.269 533.425 354.325C536.333 353.381 538.912 351.626 540.857 349.267C536.015 350.661 530.82 343.41 533.512 334.955Z" fill="black"/>
<path d="M514.477 343.599C514.477 345.832 513.815 348.014 512.574 349.871C511.334 351.727 509.571 353.174 507.508 354.029C505.445 354.883 503.176 355.107 500.986 354.671C498.796 354.236 496.785 353.16 495.206 351.582C493.627 350.003 492.552 347.991 492.116 345.802C491.681 343.612 491.904 341.342 492.759 339.279C493.613 337.216 495.06 335.453 496.916 334.213C498.773 332.972 500.955 332.31 503.188 332.31C506.182 332.31 509.053 333.5 511.171 335.617C513.288 337.734 514.477 340.605 514.477 343.599Z" fill="#23A6DF"/>
<path opacity="0.2" d="M503.188 332.31C500.82 332.31 498.512 333.063 496.599 334.46C496.292 341.332 502.149 348.063 500.496 350.33C498.843 352.597 494.852 351.204 493.411 349.267C494.405 350.98 495.833 352.401 497.551 353.388C499.268 354.375 501.215 354.892 503.196 354.888C505.177 354.884 507.122 354.359 508.836 353.365C510.549 352.372 511.971 350.945 512.959 349.228C513.947 347.511 514.465 345.564 514.462 343.583C514.46 341.603 513.936 339.657 512.943 337.943C511.951 336.229 510.525 334.806 508.808 333.817C507.092 332.829 505.145 332.309 503.165 332.31H503.188Z" fill="black"/>
<path d="M517.311 352.148C528.75 352.148 538.023 342.875 538.023 331.437C538.023 319.998 528.75 310.725 517.311 310.725C505.872 310.725 496.599 319.998 496.599 331.437C496.599 342.875 505.872 352.148 517.311 352.148Z" fill="#23A6DF"/>
<path opacity="0.1" d="M537.456 336.16C536.674 339.513 535.068 342.619 532.784 345.196C530.5 347.772 527.609 349.739 524.373 350.917C521.138 352.096 517.66 352.449 514.253 351.945C510.847 351.441 507.62 350.095 504.864 348.03C502.109 345.965 499.912 343.246 498.472 340.118C497.032 336.99 496.394 333.552 496.617 330.116C496.84 326.68 497.916 323.353 499.748 320.438C501.579 317.522 504.109 315.109 507.109 313.417C505.358 314.449 503.767 315.73 502.385 317.219C501.356 321.647 501.813 326.29 503.686 330.431C505.559 334.573 508.745 337.982 512.749 340.132C516.754 342.283 521.356 343.054 525.843 342.327C530.33 341.601 534.453 339.417 537.574 336.113L537.456 336.16Z" fill="black"/>
<path d="M217.102 361.093L209.823 375.434L211.002 376.033L218.281 361.691L217.102 361.093Z" fill="#455A64"/>
<path d="M203.592 359.949L202.468 360.645L209.566 372.111L210.69 371.415L203.592 359.949Z" fill="#455A64"/>
<path d="M211.498 358.619V393.194C211.489 393.292 211.453 393.385 211.395 393.464C211.336 393.543 211.258 393.605 211.167 393.643C210.924 393.76 210.658 393.821 210.388 393.821C210.118 393.821 209.852 393.76 209.609 393.643C209.521 393.604 209.446 393.541 209.392 393.462C209.338 393.383 209.306 393.29 209.302 393.194V358.619H211.498Z" fill="#455A64"/>
<path d="M237.642 347.85C237.642 351.026 236.7 354.131 234.935 356.772C233.17 359.413 230.662 361.472 227.728 362.687C224.793 363.903 221.564 364.221 218.449 363.601C215.334 362.981 212.472 361.452 210.227 359.206C207.981 356.96 206.451 354.098 205.831 350.983C205.212 347.868 205.53 344.639 206.745 341.705C207.961 338.77 210.019 336.262 212.66 334.497C215.301 332.733 218.406 331.791 221.582 331.791C225.841 331.791 229.926 333.483 232.938 336.495C235.95 339.506 237.642 343.591 237.642 347.85Z" fill="#23A6DF"/>
<path opacity="0.2" d="M226.636 343.741C228.714 337.223 230.911 334.672 229.517 333.893C227.111 332.508 224.382 331.783 221.606 331.791C218.9 331.789 216.237 332.472 213.866 333.775C211.494 335.078 209.49 336.959 208.04 339.243C206.59 341.528 205.74 344.142 205.571 346.842C205.401 349.543 205.916 352.243 207.069 354.691C208.221 357.139 209.974 359.256 212.163 360.846C214.353 362.436 216.909 363.446 219.594 363.784C222.279 364.122 225.005 363.776 227.52 362.778C230.036 361.78 232.258 360.163 233.981 358.076C229.21 359.47 223.92 352.196 226.636 343.741Z" fill="black"/>
<path d="M207.578 352.408C207.578 354.641 206.916 356.824 205.675 358.68C204.435 360.536 202.672 361.983 200.609 362.838C198.546 363.692 196.276 363.916 194.086 363.48C191.897 363.045 189.885 361.969 188.306 360.391C186.728 358.812 185.652 356.8 185.217 354.611C184.781 352.421 185.005 350.151 185.859 348.088C186.714 346.025 188.161 344.262 190.017 343.022C191.874 341.782 194.056 341.119 196.289 341.119C197.772 341.116 199.241 341.406 200.613 341.972C201.984 342.539 203.229 343.37 204.278 344.419C205.327 345.468 206.158 346.713 206.725 348.085C207.291 349.456 207.581 350.925 207.578 352.408Z" fill="#23A6DF"/>
<path opacity="0.2" d="M196.289 341.119C193.923 341.111 191.615 341.855 189.7 343.245C189.393 350.141 195.226 356.872 193.597 359.115C191.967 361.359 187.929 359.989 186.512 358.076C187.506 359.789 188.934 361.21 190.651 362.197C192.369 363.184 194.316 363.701 196.297 363.697C198.278 363.693 200.223 363.168 201.936 362.174C203.65 361.181 205.072 359.754 206.06 358.037C207.047 356.32 207.566 354.373 207.563 352.392C207.56 350.411 207.036 348.466 206.044 346.752C205.051 345.038 203.625 343.615 201.909 342.626C200.192 341.637 198.246 341.118 196.265 341.119H196.289Z" fill="black"/>
<path d="M210.388 360.934C221.827 360.934 231.1 351.661 231.1 340.222C231.1 328.783 221.827 319.51 210.388 319.51C198.949 319.51 189.676 328.783 189.676 340.222C189.676 351.661 198.949 360.934 210.388 360.934Z" fill="#23A6DF"/>
<path opacity="0.1" d="M230.533 344.969C229.742 348.312 228.131 351.406 225.846 353.971C223.56 356.535 220.671 358.491 217.441 359.66C214.211 360.829 210.74 361.175 207.342 360.667C203.944 360.159 200.727 358.813 197.979 356.751C195.232 354.688 193.042 351.974 191.606 348.853C190.17 345.732 189.534 342.302 189.755 338.874C189.976 335.445 191.048 332.126 192.873 329.216C194.698 326.305 197.22 323.895 200.209 322.202C198.423 323.233 196.792 324.513 195.368 326.005C194.347 330.427 194.809 335.062 196.682 339.197C198.556 343.331 201.736 346.734 205.735 348.882C209.733 351.03 214.326 351.804 218.808 351.084C223.289 350.364 227.409 348.19 230.533 344.898V344.969Z" fill="black"/>
<path d="M413.327 430.981L439.045 416.15L462.119 429.47L436.424 444.277L413.327 430.981Z" fill="#F0F0F0"/>
<path d="M233.414 393.1L233.391 313.346L356.198 384.22V463.997L233.414 393.1Z" fill="#F0F0F0"/>
<path d="M233.391 344.993L356.198 415.914V384.22L233.391 313.346V344.993Z" fill="#E0E0E0"/>
<path d="M494.308 384.22V306.686L448.256 295.61V286.754L356.198 384.22V463.997L494.308 384.22Z" fill="#FAFAFA"/>
<path d="M448.256 286.754V295.61L501.984 308.906V300.05L448.256 286.754Z" fill="#263238"/>
<path d="M379.224 229.152L501.984 300.05L448.256 286.754L325.472 215.856L379.224 229.152Z" fill="#37474F"/>
<path d="M348.499 397.563L448.279 286.754V277.897L340.823 401.956L348.499 397.563Z" fill="#37474F"/>
<path d="M325.496 207L448.279 277.897L341.012 402.074L218.04 331.059L325.496 207Z" fill="#455A64"/>
<path d="M286.977 321.872L302.446 330.799V353.211L286.977 344.355V321.872Z" fill="#263238"/>
<path d="M302.446 330.799L317.891 321.872V335.499L302.446 353.211V330.799Z" fill="#37474F"/>
<path d="M302.446 306.686L285.371 316.534V320.998L302.446 330.799L319.497 320.998V316.534L302.446 306.686Z" fill="#F5F5F5"/>
<path d="M285.371 320.998L302.446 330.799V326.335L285.371 316.534V320.998Z" fill="#E0E0E0"/>
<path d="M319.497 320.998L302.446 330.799V326.335L319.497 316.534V320.998Z" fill="#EBEBEB"/>
<path d="M291.11 316.534L302.446 309.993L313.782 316.534L302.446 323.053L291.11 316.534Z" fill="#23A6DF"/>
<path d="M302.446 309.993V323.053L291.11 316.534L302.446 309.993Z" fill="#37474F"/>
<path d="M302.446 309.993L313.782 316.534L302.446 323.053V309.993Z" fill="#263238"/>
<path d="M366.14 405.074L400.692 385.141V411.733L366.14 431.666V405.074Z" fill="#455A64"/>
<path d="M399.157 410.836V386.038L366.14 405.074V429.895L399.157 410.836Z" fill="#E0E0E0"/>
<path d="M400.692 411.733L399.157 410.836L366.14 429.895V431.666L400.692 411.733Z" fill="#37474F"/>
<path d="M366.14 418.37L400.692 398.437V396.642L366.14 416.575V418.37Z" fill="#455A64"/>
<path d="M450.57 356.305L485.098 336.372V362.965L450.57 382.897V356.305Z" fill="#455A64"/>
<path d="M483.563 362.067V337.27L450.57 356.305V381.126L483.563 362.067Z" fill="#E0E0E0"/>
<path d="M485.098 362.965L483.563 362.067L450.57 381.126V382.897L485.098 362.965Z" fill="#37474F"/>
<path d="M450.57 369.601L485.098 349.669V347.874L450.57 367.83V369.601Z" fill="#455A64"/>
<path d="M413.327 430.981V377.82L439.045 362.988V416.15L413.327 430.981Z" fill="#37474F"/>
<path d="M438.148 415.465V363.508L413.327 377.82V429.777L438.148 415.465Z" fill="#455A64"/>
<path d="M439.045 362.988L438.148 363.508V415.465L439.045 416.15V362.988Z" fill="#263238"/>
<path d="M328.165 394.659L310.121 384.244V410.812L328.165 421.227V394.659Z" fill="#455A64"/>
<path d="M311.656 409.915V385.117L328.164 394.658V419.456L311.656 409.915Z" fill="#FAFAFA"/>
<path d="M310.121 410.812L311.657 409.915L328.165 419.456V421.227L310.121 410.812Z" fill="#37474F"/>
<path d="M328.165 407.86L310.121 397.516V395.721L328.165 406.065V407.86Z" fill="#455A64"/>
<path d="M311.656 385.117L328.164 394.658V399.783L311.656 390.313V385.117Z" fill="#F5F5F5"/>
<path d="M274.436 363.626L256.393 353.211V379.804L274.436 390.219V363.626Z" fill="#455A64"/>
<path d="M257.952 378.906V354.109L274.437 363.626V388.424L257.952 378.906Z" fill="#FAFAFA"/>
<path d="M256.393 379.804L257.952 378.906L274.436 388.424V390.218L256.393 379.804Z" fill="#37474F"/>
<path d="M274.436 376.828L256.393 366.484V364.689L274.436 375.033V376.828Z" fill="#455A64"/>
<path d="M257.952 354.109L274.437 363.626V368.538L257.952 359.092V354.109Z" fill="#F5F5F5"/>
<path d="M1152.52 285.018L968.338 391.364V400.22L1152.52 506.566L1336.74 400.22V391.364L1152.52 285.018Z" fill="#23A6DF"/>
<path opacity="0.15" d="M968.338 391.364L1152.55 497.71L1152.52 506.566L968.338 400.22V391.364Z" fill="black"/>
<path opacity="0.1" d="M1152.55 497.71L1336.74 391.364V400.22L1152.52 506.566L1152.55 497.71Z" fill="black"/>
<path d="M1320.86 359.677L1313.58 374.018L1314.76 374.617L1322.04 360.275L1320.86 359.677Z" fill="#455A64"/>
<path d="M1309.25 354.52L1308.13 355.221L1315.27 366.683L1316.4 365.982L1309.25 354.52Z" fill="#455A64"/>
<path d="M1315.32 357.237V391.812C1315.31 391.908 1315.28 392.001 1315.22 392.08C1315.17 392.159 1315.1 392.222 1315.01 392.261C1314.77 392.389 1314.5 392.456 1314.23 392.456C1313.96 392.456 1313.69 392.389 1313.45 392.261C1313.36 392.223 1313.28 392.161 1313.22 392.082C1313.16 392.003 1313.13 391.91 1313.12 391.812V357.237H1315.32Z" fill="#455A64"/>
<path d="M1341.46 346.492C1341.46 349.668 1340.52 352.773 1338.75 355.414C1336.99 358.055 1334.48 360.113 1331.54 361.329C1328.61 362.544 1325.38 362.862 1322.27 362.243C1319.15 361.623 1316.29 360.094 1314.04 357.848C1311.8 355.602 1310.27 352.74 1309.65 349.625C1309.03 346.51 1309.35 343.281 1310.56 340.346C1311.78 337.412 1313.84 334.904 1316.48 333.139C1319.12 331.374 1322.22 330.433 1325.4 330.433C1329.66 330.433 1333.74 332.125 1336.75 335.136C1339.77 338.148 1341.46 342.233 1341.46 346.492Z" fill="#23A6DF"/>
<path opacity="0.2" d="M1330.43 342.382C1332.51 335.864 1334.73 333.314 1333.31 332.511C1330.65 331.005 1327.61 330.289 1324.56 330.449C1321.51 330.609 1318.56 331.637 1316.07 333.412C1313.59 335.188 1311.65 337.637 1310.51 340.472C1309.36 343.307 1309.05 346.41 1309.61 349.416C1310.17 352.423 1311.57 355.207 1313.66 357.443C1315.74 359.678 1318.43 361.272 1321.39 362.036C1324.35 362.8 1327.46 362.704 1330.37 361.757C1333.28 360.811 1335.85 359.055 1337.8 356.694C1333.03 358.088 1327.76 350.766 1330.43 342.382Z" fill="black"/>
<path d="M1311.39 351.026C1311.39 353.259 1310.73 355.441 1309.49 357.298C1308.25 359.154 1306.49 360.601 1304.43 361.456C1302.36 362.31 1300.09 362.534 1297.9 362.098C1295.71 361.663 1293.7 360.587 1292.12 359.009C1290.54 357.43 1289.47 355.418 1289.03 353.229C1288.6 351.039 1288.82 348.769 1289.68 346.706C1290.53 344.643 1291.98 342.88 1293.83 341.64C1295.69 340.399 1297.87 339.737 1300.11 339.737C1303.1 339.737 1305.97 340.927 1308.09 343.044C1310.21 345.161 1311.39 348.032 1311.39 351.026Z" fill="#23A6DF"/>
<path opacity="0.2" d="M1300.11 339.737C1297.74 339.74 1295.43 340.493 1293.52 341.887C1293.21 348.759 1299.07 355.49 1297.44 357.757C1295.81 360.024 1291.77 358.631 1290.35 356.694C1291.35 358.407 1292.77 359.828 1294.49 360.815C1296.21 361.802 1298.16 362.319 1300.14 362.315C1302.12 362.311 1304.06 361.786 1305.78 360.792C1307.49 359.799 1308.91 358.372 1309.9 356.655C1310.89 354.938 1311.41 352.991 1311.4 351.01C1311.4 349.03 1310.88 347.084 1309.88 345.37C1308.89 343.656 1307.47 342.233 1305.75 341.244C1304.03 340.255 1302.09 339.736 1300.11 339.737Z" fill="black"/>
<path d="M1314.23 359.576C1325.67 359.576 1334.94 350.303 1334.94 338.864C1334.94 327.425 1325.67 318.152 1314.23 318.152C1302.79 318.152 1293.52 327.425 1293.52 338.864C1293.52 350.303 1302.79 359.576 1314.23 359.576Z" fill="#23A6DF"/>
<path opacity="0.1" d="M1334.37 343.681C1333.57 347.022 1331.95 350.111 1329.66 352.671C1327.37 355.23 1324.48 357.179 1321.24 358.342C1318.01 359.505 1314.54 359.846 1311.14 359.334C1307.75 358.821 1304.53 357.472 1301.78 355.407C1299.04 353.343 1296.85 350.627 1295.41 347.506C1293.98 344.385 1293.34 340.955 1293.56 337.527C1293.78 334.099 1294.85 330.779 1296.67 327.866C1298.5 324.954 1301.02 322.541 1304 320.844C1302.2 321.86 1300.56 323.142 1299.14 324.646C1298.11 329.074 1298.57 333.717 1300.44 337.858C1302.31 342 1305.5 345.409 1309.5 347.559C1313.51 349.71 1318.11 350.481 1322.6 349.755C1327.08 349.028 1331.2 346.844 1334.33 343.54L1334.37 343.681Z" fill="black"/>
<path d="M998.043 358.92L990.764 373.262L991.943 373.86L999.222 359.519L998.043 358.92Z" fill="#455A64"/>
<path d="M986.526 354.91L985.402 355.611L992.549 367.073L993.673 366.372L986.526 354.91Z" fill="#455A64"/>
<path d="M992.498 356.482V391.057C992.486 391.153 992.45 391.246 992.392 391.324C992.334 391.403 992.257 391.465 992.167 391.505C991.924 391.622 991.658 391.683 991.388 391.683C991.118 391.683 990.852 391.622 990.609 391.505C990.525 391.461 990.454 391.396 990.4 391.318C990.347 391.24 990.313 391.15 990.302 391.057V356.482H992.498Z" fill="#455A64"/>
<path d="M1018.64 345.712C1018.64 348.889 1017.7 351.994 1015.94 354.635C1014.17 357.276 1011.66 359.334 1008.73 360.549C1005.79 361.765 1002.56 362.083 999.449 361.463C996.334 360.844 993.473 359.314 991.227 357.068C988.981 354.822 987.451 351.961 986.832 348.845C986.212 345.73 986.53 342.501 987.745 339.567C988.961 336.632 991.019 334.124 993.66 332.36C996.301 330.595 999.406 329.653 1002.58 329.653C1006.84 329.659 1010.92 331.353 1013.93 334.364C1016.94 337.374 1018.64 341.455 1018.64 345.712Z" fill="#23A6DF"/>
<path opacity="0.2" d="M1007.61 341.603C1009.69 335.085 1011.89 332.534 1010.49 331.731C1007.83 330.225 1004.8 329.509 1001.75 329.668C998.696 329.826 995.753 330.852 993.263 332.625C990.774 334.398 988.842 336.845 987.695 339.678C986.548 342.511 986.233 345.612 986.787 348.618C987.342 351.623 988.742 354.408 990.824 356.646C992.906 358.883 995.583 360.48 998.541 361.249C1001.5 362.017 1004.62 361.926 1007.52 360.985C1010.43 360.045 1013.01 358.294 1014.96 355.939C1010.21 357.308 1004.92 350.058 1007.61 341.603Z" fill="black"/>
<path d="M988.578 350.247C988.582 352.481 987.924 354.665 986.687 356.525C985.449 358.385 983.688 359.835 981.625 360.693C979.563 361.551 977.292 361.778 975.101 361.345C972.91 360.912 970.896 359.839 969.315 358.261C967.734 356.683 966.656 354.672 966.219 352.482C965.781 350.291 966.003 348.02 966.857 345.956C967.711 343.892 969.158 342.127 971.015 340.886C972.872 339.644 975.055 338.982 977.289 338.982C980.279 338.982 983.146 340.168 985.263 342.28C987.379 344.392 988.571 347.257 988.578 350.247Z" fill="#23A6DF"/>
<path opacity="0.2" d="M977.289 338.958C974.923 338.949 972.615 339.694 970.7 341.084C970.393 347.98 976.25 354.687 974.597 356.954C972.943 359.221 968.929 357.828 967.512 355.915C968.506 357.628 969.934 359.049 971.652 360.036C973.369 361.022 975.316 361.54 977.297 361.536C979.278 361.532 981.223 361.006 982.936 360.013C984.65 359.019 986.072 357.593 987.06 355.875C988.047 354.158 988.566 352.212 988.563 350.231C988.56 348.25 988.036 346.305 987.044 344.591C986.051 342.876 984.625 341.454 982.909 340.465C981.193 339.476 979.246 338.956 977.265 338.958H977.289Z" fill="black"/>
<path d="M991.388 358.796C1002.83 358.796 1012.1 349.523 1012.1 338.084C1012.1 326.645 1002.83 317.372 991.388 317.372C979.949 317.372 970.676 326.645 970.676 338.084C970.676 349.523 979.949 358.796 991.388 358.796Z" fill="#23A6DF"/>
<path opacity="0.1" d="M1011.56 342.831C1010.77 346.182 1009.16 349.284 1006.88 351.857C1004.59 354.431 1001.7 356.393 998.462 357.568C995.227 358.743 991.75 359.093 988.346 358.587C984.941 358.081 981.716 356.734 978.963 354.668C976.21 352.603 974.015 349.884 972.576 346.757C971.138 343.63 970.501 340.194 970.724 336.759C970.947 333.324 972.022 329.999 973.853 327.084C975.684 324.17 978.212 321.757 981.209 320.065C979.417 321.087 977.786 322.369 976.368 323.867C975.359 328.289 975.829 332.92 977.707 337.049C979.585 341.178 982.767 344.576 986.763 346.722C990.759 348.868 995.35 349.642 999.829 348.926C1004.31 348.211 1008.43 346.044 1011.56 342.76V342.831Z" fill="black"/>
<path d="M1189.63 238.776L1205.07 247.703V265.557L1189.63 256.63V238.776Z" fill="#E0E0E0"/>
<path d="M1205.07 247.703L1220.54 238.776V274.461L1205.07 265.557V247.703Z" fill="#F0F0F0"/>
<path d="M1205.07 223.59L1188.02 233.415V237.878L1205.07 247.703L1222.15 237.878V233.415L1205.07 223.59Z" fill="#455A64"/>
<path d="M1188.02 237.879L1205.07 247.703V243.24L1188.02 233.415V237.879Z" fill="#37474F"/>
<path d="M1222.15 237.879L1205.07 247.703V243.24L1222.15 233.415V237.879Z" fill="#263238"/>
<path d="M1193.74 233.415L1205.07 226.897L1216.43 233.415L1205.07 239.957L1193.74 233.415Z" fill="#23A6DF"/>
<path d="M1205.07 226.897V239.957L1193.74 233.415L1205.07 226.897Z" fill="#37474F"/>
<path d="M1205.07 226.897L1216.43 233.415L1205.07 239.957V226.897Z" fill="#263238"/>
<path d="M1152.55 417.956L1152.52 338.202L1198.51 364.771V444.525L1152.55 417.956Z" fill="#F0F0F0"/>
<path d="M1152.52 338.202L1198.51 364.771V396.536L1152.52 370.014V338.202Z" fill="#E0E0E0"/>
<path d="M1290.68 391.364V311.61L1244.54 285.018L1198.51 364.771V444.525L1290.68 391.364Z" fill="#FAFAFA"/>
<path d="M1190.9 378.067L1244.54 285.017V276.161L1183.23 382.507L1190.9 378.067Z" fill="#37474F"/>
<path d="M1152.52 223L1244.54 276.161L1183.23 382.507L1152.55 364.771L1152.52 223Z" fill="#455A64"/>
<path d="M1244.54 285.017L1298.36 316.026L1306.03 311.61L1244.54 276.161V285.017Z" fill="#263238"/>
<path d="M1263.78 355.372L1281.83 345.028V371.62L1263.78 381.964V355.372Z" fill="#455A64"/>
<path d="M1280.29 370.723V345.925L1263.78 355.372V380.169L1280.29 370.723Z" fill="#E0E0E0"/>
<path d="M1281.83 371.62L1280.29 370.723L1263.78 380.169V381.964L1281.83 371.62Z" fill="#37474F"/>
<path d="M1263.78 368.668L1281.83 358.324V356.529L1263.78 366.873V368.668Z" fill="#455A64"/>
<path d="M1207.15 388.034L1225.19 377.689V404.258L1207.15 414.626V388.034Z" fill="#455A64"/>
<path d="M1223.66 403.385V378.563L1207.15 388.034V412.831L1223.66 403.385Z" fill="#E0E0E0"/>
<path d="M1225.19 404.258L1223.66 403.385L1207.15 412.831V414.626L1225.19 404.258Z" fill="#37474F"/>
<path d="M1207.15 401.33L1225.19 390.986V389.191L1207.15 399.535V401.33Z" fill="#455A64"/>
<path d="M1233.03 324.906L1256.06 311.61V331.542L1233.03 344.839V324.906Z" fill="#455A64"/>
<path d="M1254.53 330.645V312.484L1233.03 324.906V343.067L1254.53 330.645Z" fill="#E0E0E0"/>
<path d="M1256.06 331.542L1254.53 330.645L1233.03 343.067V344.839L1256.06 331.542Z" fill="#37474F"/>
<path d="M1298.36 316.026H1290.68V311.61L1298.36 316.026Z" fill="black"/>
<path d="M1231.69 425.348V372.187L1257.41 357.356V410.517L1231.69 425.348Z" fill="#37474F"/>
<path d="M1256.51 409.832V357.875L1231.69 372.187V424.144L1256.51 409.832Z" fill="#455A64"/>
<path d="M1257.41 357.356L1256.51 357.875V409.832L1257.41 410.517V357.356Z" fill="#263238"/>
<path d="M1152.52 417.956V338.202L1106.57 364.771V444.525L1152.52 417.956Z" fill="#FAFAFA"/>
<path d="M1152.52 338.202L1106.57 364.771V396.536L1152.55 370.014L1152.52 338.202Z" fill="#F5F5F5"/>
<path d="M1014.39 391.364V311.61L1060.51 285.018L1106.57 364.771V444.525L1014.39 391.364Z" fill="#EBEBEB"/>
<path d="M1114.17 378.067L1060.51 285.017V276.161L1121.85 382.507L1114.17 378.067Z" fill="#455A64"/>
<path d="M1152.53 223L1060.51 276.161L1121.85 382.507L1152.53 364.771V223Z" fill="#37474F"/>
<path d="M1060.51 285.017L1006.72 316.026L999.04 311.61L1060.51 276.161V285.017Z" fill="#263238"/>
<path d="M1047.78 357.403L1029.74 347.059V373.651L1047.78 383.971V357.403Z" fill="#455A64"/>
<path d="M1031.28 372.754V347.932L1047.78 357.403V382.2L1031.28 372.754Z" fill="#FAFAFA"/>
<path d="M1031.28 347.932L1047.78 357.474V360.756L1031.28 351.286V347.932Z" fill="#F5F5F5"/>
<path d="M1074.64 372.966L1091.14 382.507V385.79L1074.64 376.32V372.966Z" fill="#F5F5F5"/>
<path d="M1029.74 373.651L1031.28 372.754L1047.78 382.2V383.972L1029.74 373.651Z" fill="#37474F"/>
<path d="M1047.78 370.699L1029.74 360.355V358.56L1047.78 368.904V370.699Z" fill="#455A64"/>
<path d="M1072.04 324.906L1049.01 311.61V331.542L1072.04 344.839V324.906Z" fill="#455A64"/>
<path d="M1050.55 330.645V312.484L1072.04 324.906V343.067L1050.55 330.645Z" fill="#FAFAFA"/>
<path d="M1050.55 312.484L1072.04 324.906V328.189L1050.55 315.861V312.484Z" fill="#F5F5F5"/>
<path d="M1049.01 331.542L1050.55 330.645L1072.04 343.067V344.839L1049.01 331.542Z" fill="#37474F"/>
<path d="M1006.72 316.026H1014.39V311.61L1006.72 316.026Z" fill="black"/>
<path d="M1091.15 382.507L1073.1 372.092V398.661L1091.15 409.076V382.507Z" fill="#455A64"/>
<path d="M1074.64 397.764V372.966L1091.14 382.507V407.305L1074.64 397.764Z" fill="#FAFAFA"/>
<path d="M1073.1 398.661L1074.64 397.764L1091.15 407.305V409.076L1073.1 398.661Z" fill="#37474F"/>
<path d="M1091.15 395.709L1073.1 385.365V383.57L1091.15 393.914V395.709Z" fill="#455A64"/>
<path d="M1074.64 372.966L1091.14 382.507V385.79L1074.64 376.32V372.966Z" fill="#F5F5F5"/>
<path d="M1183.23 382.507L1160.18 369.187V393.702L1183.23 406.998V382.507Z" fill="#263238"/>
<path d="M1161.59 392.875V370.014L1183.23 382.507V405.368L1161.59 392.875Z" fill="#FAFAFA"/>
<path d="M1161.59 370.014V375.328L1183.23 387.845V382.507L1161.59 370.014Z" fill="#F0F0F0"/>
<path d="M1160.18 393.702L1161.59 392.875L1183.23 405.368V406.998L1160.18 393.702Z" fill="#37474F"/>
<path d="M1160.18 381.445L1161.59 380.618L1183.23 393.111V394.764L1160.18 381.445Z" fill="#37474F"/>
<path d="M1171.23 400.078L1172.65 400.881V376.391L1171.23 375.564V400.078Z" fill="#37474F"/>
<path d="M1136.77 435.787L1140.86 433.425C1141.98 426.784 1142.15 420.016 1141.35 413.327C1139.3 400.291 1130.4 395.78 1127.18 397.079C1123.97 398.378 1123.22 402.251 1129.05 409.785C1134.32 417.41 1137.03 426.519 1136.77 435.787Z" fill="#23A6DF"/>
<g opacity="0.2">
<path d="M1136.77 435.787L1140.86 433.425C1141.98 426.784 1142.15 420.016 1141.35 413.327C1139.3 400.291 1130.4 395.78 1127.18 397.079C1123.97 398.378 1123.22 402.251 1129.05 409.785C1134.32 417.41 1137.03 426.519 1136.77 435.787Z" fill="black"/>
</g>
<path d="M1138.26 430.685C1138.22 430.683 1138.18 430.672 1138.15 430.653C1138.11 430.635 1138.08 430.609 1138.06 430.578C1138.03 430.547 1138.01 430.511 1138.01 430.472C1138 430.434 1137.99 430.394 1138 430.355C1139.7 418.145 1134.79 404.754 1129.26 399.346C1129.21 399.293 1129.18 399.221 1129.18 399.145C1129.18 399.07 1129.21 398.998 1129.26 398.944C1129.32 398.891 1129.39 398.861 1129.46 398.861C1129.54 398.861 1129.61 398.891 1129.66 398.944C1135.28 404.424 1140.29 418.027 1138.59 430.449C1138.59 430.487 1138.57 430.523 1138.55 430.555C1138.53 430.587 1138.51 430.615 1138.48 430.637C1138.44 430.659 1138.41 430.675 1138.37 430.683C1138.34 430.691 1138.3 430.692 1138.26 430.685Z" fill="white"/>
<path d="M1125.44 442.423C1124.78 442.801 1123.45 441.998 1122.93 441.644C1122.06 441.044 1121.36 440.231 1120.9 439.282C1120.38 438.213 1120.2 437.009 1120.38 435.834C1120.49 435.212 1120.63 434.596 1120.81 433.992C1121 433.378 1121.16 432.787 1121.33 432.197C1121.54 431.616 1121.63 430.996 1121.59 430.378C1121.43 429.784 1121.15 429.229 1120.76 428.746C1120.38 428.263 1119.91 427.862 1119.37 427.568C1118.76 427.217 1118.24 426.728 1117.86 426.142C1117.47 425.556 1117.23 424.888 1117.15 424.191C1117.22 423.044 1117.68 421.955 1118.45 421.097C1119.15 420.2 1119.98 419.42 1120.62 418.476C1121.05 417.967 1121.31 417.33 1121.36 416.661C1121.4 415.992 1121.22 415.328 1120.85 414.768C1120.26 413.852 1119.74 412.888 1119.3 411.887C1119.08 411.384 1119.01 410.831 1119.1 410.291C1119.19 409.752 1119.43 409.248 1119.79 408.84C1120.15 408.572 1120.56 408.377 1120.99 408.268C1121.43 408.158 1121.88 408.136 1122.32 408.202C1123.16 408.299 1123.96 408.581 1124.68 409.029C1127.04 410.328 1128.36 413.115 1130.84 414.107C1131.83 414.42 1132.83 414.665 1133.84 414.839C1134.35 414.929 1134.84 415.127 1135.27 415.421C1135.7 415.714 1136.06 416.095 1136.32 416.539C1137.24 418.358 1135.54 420.601 1136.18 422.538C1136.82 424.474 1138.43 424.899 1139.35 426.458C1139.74 427.126 1139.9 427.909 1139.8 428.678C1139.71 429.992 1139.39 431.28 1138.85 432.48C1138.23 433.658 1137.54 434.794 1136.77 435.881L1125.44 442.423Z" fill="#23A6DF"/>
<g opacity="0.1">
<path d="M1125.44 442.423C1124.78 442.801 1123.45 441.998 1122.93 441.644C1122.06 441.044 1121.36 440.231 1120.9 439.282C1120.38 438.213 1120.2 437.009 1120.38 435.834C1120.49 435.212 1120.63 434.596 1120.81 433.992C1121 433.378 1121.16 432.787 1121.33 432.197C1121.54 431.616 1121.63 430.996 1121.59 430.378C1121.43 429.784 1121.15 429.229 1120.76 428.746C1120.38 428.263 1119.91 427.862 1119.37 427.568C1118.76 427.217 1118.24 426.728 1117.86 426.142C1117.47 425.556 1117.23 424.888 1117.15 424.191C1117.22 423.044 1117.68 421.955 1118.45 421.097C1119.15 420.2 1119.98 419.42 1120.62 418.476C1121.05 417.967 1121.31 417.33 1121.36 416.661C1121.4 415.992 1121.22 415.328 1120.85 414.768C1120.26 413.852 1119.74 412.888 1119.3 411.887C1119.08 411.384 1119.01 410.831 1119.1 410.291C1119.19 409.752 1119.43 409.248 1119.79 408.84C1120.15 408.572 1120.56 408.377 1120.99 408.268C1121.43 408.158 1121.88 408.136 1122.32 408.202C1123.16 408.299 1123.96 408.581 1124.68 409.029C1127.04 410.328 1128.36 413.115 1130.84 414.107C1131.83 414.42 1132.83 414.665 1133.84 414.839C1134.35 414.929 1134.84 415.127 1135.27 415.421C1135.7 415.714 1136.06 416.095 1136.32 416.539C1137.24 418.358 1135.54 420.601 1136.18 422.538C1136.82 424.474 1138.43 424.899 1139.35 426.458C1139.74 427.126 1139.9 427.909 1139.8 428.678C1139.71 429.992 1139.39 431.28 1138.85 432.48C1138.23 433.658 1137.54 434.794 1136.77 435.881L1125.44 442.423Z" fill="black"/>
</g>
<path d="M1132.07 438.904C1132 438.893 1131.93 438.857 1131.88 438.801C1131.82 438.745 1131.79 438.673 1131.79 438.597C1132.29 427.025 1126.83 414.248 1122.86 410.54C1122.83 410.514 1122.81 410.482 1122.8 410.447C1122.78 410.412 1122.77 410.375 1122.77 410.336C1122.77 410.298 1122.78 410.26 1122.79 410.224C1122.8 410.188 1122.82 410.155 1122.85 410.127C1122.88 410.099 1122.91 410.077 1122.94 410.061C1122.98 410.045 1123.02 410.037 1123.05 410.036C1123.09 410.034 1123.13 410.041 1123.17 410.055C1123.2 410.068 1123.24 410.089 1123.26 410.115C1127.3 413.894 1132.88 426.883 1132.38 438.621C1132.37 438.698 1132.34 438.77 1132.28 438.823C1132.22 438.875 1132.15 438.904 1132.07 438.904Z" fill="white"/>
<path d="M1130.32 425.23C1127.58 424.485 1124.76 424.033 1121.92 423.884C1121.88 423.884 1121.84 423.876 1121.8 423.86C1121.77 423.845 1121.73 423.822 1121.71 423.793C1121.68 423.764 1121.66 423.73 1121.65 423.693C1121.64 423.655 1121.63 423.616 1121.63 423.577C1121.64 423.5 1121.67 423.427 1121.73 423.375C1121.79 423.322 1121.86 423.293 1121.94 423.293C1124.83 423.444 1127.7 423.911 1130.49 424.687C1130.53 424.698 1130.56 424.715 1130.59 424.739C1130.62 424.763 1130.64 424.792 1130.66 424.825C1130.68 424.858 1130.69 424.894 1130.69 424.931C1130.69 424.968 1130.69 425.005 1130.68 425.041C1130.65 425.11 1130.6 425.167 1130.54 425.201C1130.47 425.236 1130.4 425.246 1130.32 425.23Z" fill="white"/>
<path d="M1231.69 425.348L1257.41 410.517L1280.48 423.837L1254.76 438.644L1231.69 425.348Z" fill="#F0F0F0"/>
<path d="M738.654 513.3L514.153 642.909V652.875L747.274 787.467L971.751 657.858V647.892L738.654 513.3Z" fill="#23A6DF"/>
<path d="M842.26 692.764L868.003 707.807L911.245 682.845L885.432 667.848L842.26 692.764Z" fill="#F0F0F0"/>
<path opacity="0.15" d="M514.153 642.909L747.274 777.5V787.467L514.153 652.875V642.909Z" fill="black"/>
<path opacity="0.1" d="M747.274 777.5L971.751 647.892V657.858L747.274 787.466V777.5Z" fill="black"/>
<path d="M946.527 603.757L936.522 623.469L938.144 624.292L948.148 604.58L946.527 603.757Z" fill="#263238"/>
<path d="M927.938 602.082L926.412 603.027L936.17 618.79L937.696 617.846L927.938 602.082Z" fill="#263238"/>
<path d="M938.735 600.257V647.75C938.721 647.883 938.672 648.01 938.593 648.118C938.514 648.225 938.408 648.311 938.286 648.364C937.953 648.534 937.585 648.623 937.211 648.623C936.838 648.623 936.47 648.534 936.137 648.364C936.017 648.309 935.915 648.223 935.84 648.115C935.765 648.007 935.721 647.881 935.712 647.75V600.257H938.735Z" fill="#263238"/>
<path d="M952.645 607.531C964.827 607.531 974.703 597.655 974.703 585.473C974.703 573.29 964.827 563.415 952.645 563.415C940.462 563.415 930.587 573.29 930.587 585.473C930.587 597.655 940.462 607.531 952.645 607.531Z" fill="#455A64"/>
<path d="M959.565 579.852C962.399 570.877 965.445 567.382 963.509 566.296C959.855 564.226 955.687 563.241 951.493 563.459C947.3 563.676 943.256 565.085 939.836 567.522C936.416 569.958 933.762 573.32 932.187 577.212C930.612 581.105 930.18 585.366 930.943 589.495C931.706 593.624 933.632 597.45 936.494 600.523C939.357 603.595 943.036 605.787 947.101 606.84C951.166 607.893 955.447 607.764 959.441 606.468C963.435 605.173 966.977 602.764 969.649 599.525C963.131 601.414 955.88 591.471 959.565 579.852Z" fill="#37474F"/>
<path d="M917.905 607.224C926.461 607.224 933.397 600.287 933.397 591.731C933.397 583.175 926.461 576.239 917.905 576.239C909.348 576.239 902.412 583.175 902.412 591.731C902.412 600.287 909.348 607.224 917.905 607.224Z" fill="#455A64"/>
<path d="M917.905 576.215C914.649 576.211 911.475 577.236 908.836 579.143C908.434 588.59 916.464 597.848 914.22 600.965C911.977 604.083 906.427 602.146 904.514 599.525C905.884 601.869 907.846 603.812 910.204 605.159C912.562 606.506 915.232 607.21 917.948 607.2C920.663 607.19 923.328 606.466 925.676 605.102C928.023 603.737 929.971 601.779 931.324 599.425C932.676 597.07 933.386 594.401 933.382 591.686C933.379 588.971 932.661 586.304 931.302 583.953C929.943 581.602 927.99 579.65 925.638 578.292C923.287 576.934 920.62 576.218 917.905 576.215Z" fill="#37474F"/>
<path d="M964.94 581.494C968.547 566.21 959.081 550.895 943.797 547.288C928.513 543.681 913.199 553.146 909.591 568.43C905.984 583.714 915.45 599.029 930.734 602.636C946.018 606.244 961.332 596.778 964.94 581.494Z" fill="#455A64"/>
<path d="M964.973 581.505C963.866 586.063 961.646 590.275 958.511 593.763C955.375 597.251 951.423 599.907 947.009 601.492C942.595 603.077 937.856 603.541 933.218 602.844C928.58 602.146 924.188 600.309 920.435 597.496C916.682 594.682 913.686 590.982 911.715 586.726C909.745 582.47 908.861 577.791 909.144 573.109C909.427 568.428 910.868 563.89 913.336 559.902C915.805 555.914 919.225 552.601 923.289 550.26C920.826 551.665 918.583 553.424 916.629 555.48C916.136 557.609 915.882 559.788 915.874 561.974C915.826 567.688 917.506 573.283 920.694 578.025C923.882 582.767 928.428 586.434 933.738 588.546C939.047 590.658 944.871 591.116 950.445 589.86C956.019 588.603 961.083 585.691 964.973 581.505Z" fill="#37474F"/>
<path d="M558.241 598.125L548.236 617.836L549.858 618.659L559.862 598.948L558.241 598.125Z" fill="#263238"/>
<path d="M539.699 596.558L538.173 597.502L547.932 613.265L549.458 612.321L539.699 596.558Z" fill="#263238"/>
<path d="M550.546 594.707V642.2C550.537 642.331 550.493 642.457 550.418 642.565C550.343 642.673 550.241 642.759 550.121 642.814C549.789 642.984 549.42 643.073 549.047 643.073C548.673 643.073 548.305 642.984 547.972 642.814C547.85 642.761 547.744 642.676 547.665 642.568C547.586 642.46 547.537 642.333 547.523 642.2V594.707H550.546Z" fill="#263238"/>
<path d="M564.41 602.004C576.592 602.004 586.468 592.129 586.468 579.946C586.468 567.764 576.592 557.888 564.41 557.888C552.227 557.888 542.352 567.764 542.352 579.946C542.352 592.129 552.227 602.004 564.41 602.004Z" fill="#455A64"/>
<path d="M571.329 574.302C574.163 565.328 577.186 561.832 575.273 560.746C571.62 558.676 567.451 557.692 563.258 557.909C559.064 558.126 555.02 559.535 551.6 561.972C548.18 564.408 545.527 567.77 543.951 571.663C542.376 575.555 541.945 579.816 542.708 583.945C543.471 588.075 545.397 591.9 548.259 594.973C551.121 598.045 554.801 600.237 558.866 601.29C562.931 602.343 567.212 602.214 571.206 600.919C575.2 599.623 578.741 597.214 581.413 593.975C574.895 595.888 567.621 585.921 571.329 574.302Z" fill="#37474F"/>
<path d="M529.669 601.674C538.225 601.674 545.162 594.738 545.162 586.181C545.162 577.625 538.225 570.689 529.669 570.689C521.113 570.689 514.177 577.625 514.177 586.181C514.177 594.738 521.113 601.674 529.669 601.674Z" fill="#455A64"/>
<path d="M529.669 570.689C526.417 570.684 523.245 571.7 520.6 573.594C520.175 583.04 528.229 592.298 525.985 595.415C523.741 598.533 518.191 596.596 516.255 593.975C517.621 596.322 519.581 598.269 521.937 599.621C524.293 600.972 526.963 601.68 529.679 601.674C532.395 601.668 535.062 600.948 537.412 599.586C539.762 598.224 541.713 596.268 543.069 593.915C544.425 591.561 545.138 588.892 545.137 586.176C545.136 583.46 544.421 580.792 543.064 578.439C541.707 576.087 539.755 574.132 537.404 572.772C535.053 571.411 532.385 570.693 529.669 570.689Z" fill="#37474F"/>
<path d="M569.147 589.572C580.251 578.468 580.251 560.464 569.147 549.36C558.043 538.256 540.039 538.256 528.934 549.36C517.83 560.464 517.83 578.468 528.934 589.572C540.039 600.677 558.043 600.677 569.147 589.572Z" fill="#455A64"/>
<path d="M576.714 575.955C575.609 580.516 573.39 584.73 570.254 588.221C567.119 591.712 563.166 594.37 558.75 595.956C554.334 597.542 549.594 598.007 544.954 597.309C540.314 596.611 535.92 594.772 532.166 591.957C528.412 589.141 525.416 585.438 523.447 581.179C521.477 576.92 520.596 572.239 520.883 567.556C521.169 562.872 522.613 558.333 525.087 554.346C527.56 550.358 530.985 547.047 535.054 544.71C532.583 546.103 530.337 547.863 528.394 549.93C527.9 552.059 527.647 554.238 527.638 556.424C527.595 562.133 529.277 567.721 532.464 572.458C535.651 577.194 540.194 580.858 545.498 582.969C550.802 585.08 556.62 585.54 562.19 584.288C567.76 583.037 572.822 580.132 576.714 575.955Z" fill="#37474F"/>
<path d="M617.76 613.01L799.089 717.679V558.172L617.76 453.502V613.01Z" fill="#F0F0F0"/>
<path d="M747.274 657.858V747.601L565.968 642.909V553.189L747.274 657.858Z" fill="#F0F0F0"/>
<path d="M565.968 583.087L747.274 687.78V657.858L565.968 553.189V583.087Z" fill="#E0E0E0"/>
<path d="M617.76 483.401L799.089 588.071V558.172L617.76 453.479V483.401Z" fill="#E0E0E0"/>
<path d="M799.089 558.172L919.959 488.385V647.892L799.089 717.679V558.172Z" fill="#FAFAFA"/>
<path d="M747.274 657.858L799.089 608.027V717.679L747.274 747.601V657.858Z" fill="#FAFAFA"/>
<path d="M859.524 453.479L799.089 558.172L919.959 488.384L859.524 453.479Z" fill="#FAFAFA"/>
<path d="M790.445 573.121L859.524 453.479V446.016L790.445 565.658V573.121Z" fill="#23A6DF"/>
<path opacity="0.1" d="M790.445 573.121L859.524 453.479V446.016L790.445 565.658V573.121Z" fill="black"/>
<path d="M678.202 341.343L609.135 460.971L790.448 565.652L859.515 446.025L678.202 341.343Z" fill="#23A6DF"/>
<path d="M609.14 460.965L790.445 565.658V573.121L609.14 468.452V460.965Z" fill="#23A6DF"/>
<path opacity="0.15" d="M609.14 460.965L790.445 565.658V573.121L609.14 468.452V460.965Z" fill="black"/>
<path d="M859.524 446.016L935.074 489.636L928.58 493.367L859.524 453.479V446.016Z" fill="#23A6DF"/>
<path opacity="0.15" d="M859.524 446.016L935.074 489.636L928.58 493.367L859.524 453.479V446.016Z" fill="black"/>
<path d="M928.579 493.368H919.959V488.385L928.579 493.368Z" fill="#23A6DF"/>
<path opacity="0.3" d="M928.579 493.368H919.959V488.385L928.579 493.368Z" fill="black"/>
<path d="M645.58 459.549V423.651L666.245 411.725L686.839 447.386V483.401L645.58 459.549Z" fill="#F0F0F0"/>
<path opacity="0.2" d="M666.245 411.724L640.739 426.438L637.48 424.548L666.245 407.946V411.724Z" fill="black"/>
<path d="M686.839 483.401L707.456 447.646L717.989 429.366L686.839 447.386V483.401Z" fill="#FAFAFA"/>
<path opacity="0.4" d="M640.739 426.438H645.58V423.651L640.739 426.438Z" fill="black"/>
<path d="M691.751 455.888L666.245 411.724V407.946L694.939 457.73L691.751 455.888Z" fill="#23A6DF"/>
<path opacity="0.1" d="M691.751 455.888L666.245 411.724V407.946L694.939 457.73L691.751 455.888Z" fill="black"/>
<path d="M694.939 457.73L666.245 407.946L695.931 390.8L724.625 440.584L694.939 457.73Z" fill="#23A6DF"/>
<path opacity="0.3" d="M694.939 457.73L666.245 407.946L695.931 390.8L724.625 440.584L694.939 457.73Z" fill="white"/>
<path d="M676.542 441.623L655.901 429.697V453.503L676.542 465.429V441.623Z" fill="#455A64"/>
<path d="M658.003 452.274V430.901L676.542 441.623V462.973L658.003 452.274Z" fill="#E0E0E0"/>
<path d="M655.901 453.502L658.003 452.274L676.542 462.973V465.429L655.901 453.502Z" fill="#37474F"/>
<path d="M731.899 509.403V473.506L752.588 461.579L773.182 497.241V533.256L731.899 509.403Z" fill="#F0F0F0"/>
<path opacity="0.2" d="M752.588 461.579L727.082 476.293L723.799 474.403L752.588 457.801V461.579Z" fill="black"/>
<path d="M773.181 533.256L793.775 497.5L804.308 479.221L773.181 497.241V533.256Z" fill="#FAFAFA"/>
<path opacity="0.4" d="M727.081 476.293H731.899V473.506L727.081 476.293Z" fill="black"/>
<path d="M778.094 505.743L752.588 461.579V457.801L781.258 507.585L778.094 505.743Z" fill="#23A6DF"/>
<path opacity="0.1" d="M778.094 505.743L752.588 461.579V457.801L781.258 507.585L778.094 505.743Z" fill="black"/>
<path d="M781.258 507.585L752.588 457.801L782.25 440.631L810.945 490.415L781.258 507.585Z" fill="#23A6DF"/>
<path opacity="0.3" d="M781.258 507.585L752.588 457.801L782.25 440.631L810.945 490.415L781.258 507.585Z" fill="white"/>
<path d="M762.861 491.455L742.22 479.552V503.357L762.861 515.284V491.455Z" fill="#455A64"/>
<path d="M744.345 502.129V480.756L762.861 491.455V512.828L744.345 502.129Z" fill="#E0E0E0"/>
<path d="M742.22 503.357L744.345 502.129L762.861 512.828V515.284L742.22 503.357Z" fill="#37474F"/>
<path d="M617.76 496.603L799.089 601.272V608.027L738.654 672.831L557.324 568.138V561.407L617.76 496.603Z" fill="#23A6DF"/>
<path d="M617.76 496.603L799.089 601.272L738.654 666.077L557.324 561.407L617.76 496.603Z" fill="#23A6DF"/>
<path opacity="0.1" d="M738.654 666.077V672.831L799.089 608.027V601.272L738.654 666.077Z" fill="black"/>
<path opacity="0.15" d="M738.654 672.831L557.324 568.138V561.407L738.654 666.077V672.831Z" fill="black"/>
<path d="M635.047 612.986L591.876 588.071V633.934L635.047 658.85V612.986Z" fill="#263238"/>
<path d="M594.521 632.399V589.606L635.047 613.01V655.78L594.521 632.399Z" fill="#FAFAFA"/>
<path d="M594.521 589.606V599.596L635.047 622.976V612.986L594.521 589.606Z" fill="#F0F0F0"/>
<path d="M591.876 633.934L594.521 632.399L635.047 655.78V658.85L591.876 633.934Z" fill="#37474F"/>
<path d="M591.876 611.002L594.521 609.467L635.047 632.848V635.918L591.876 611.002Z" fill="#37474F"/>
<path d="M612.564 645.884L615.209 647.419V601.556L612.564 600.021V645.884Z" fill="#37474F"/>
<path d="M712.746 657.858L669.575 632.942V678.806L712.746 703.722V657.858Z" fill="#263238"/>
<path d="M672.22 677.271V634.477L712.746 657.858V700.652L672.22 677.271Z" fill="#FAFAFA"/>
<path d="M672.22 634.477V644.444L712.746 667.848V657.858L672.22 634.477Z" fill="#F0F0F0"/>
<path d="M669.575 678.806L672.22 677.271L712.746 700.652V703.722L669.575 678.806Z" fill="#37474F"/>
<path d="M669.575 655.874L672.22 654.339L712.746 677.72V680.79L669.575 655.874Z" fill="#37474F"/>
<path d="M690.263 690.756L692.908 692.291V646.427L690.263 644.892V690.756Z" fill="#37474F"/>
<path d="M773.181 662.865L816.353 637.926V683.789L773.181 708.705V662.865Z" fill="#263238"/>
<path d="M813.708 682.254V639.461L773.181 662.865V705.635L813.708 682.254Z" fill="#E6E6E6"/>
<path d="M813.708 639.461V643.853L773.181 667.234V662.865L813.708 639.461Z" fill="#E0E0E0"/>
<path d="M816.353 683.789L813.708 682.254L773.181 705.635V708.705L816.353 683.789Z" fill="#37474F"/>
<path d="M816.353 660.857L813.708 659.322L773.181 682.703V685.773L816.353 660.857Z" fill="#37474F"/>
<path d="M795.665 695.739L793.019 697.274V651.411L795.665 649.876V695.739Z" fill="#37474F"/>
<path d="M841.457 514.434L884.629 489.518V535.382L841.457 560.297V514.434Z" fill="#263238"/>
<path d="M881.984 533.847V491.053L841.457 514.434V557.227L881.984 533.847Z" fill="#E6E6E6"/>
<path d="M881.984 491.053V495.446L841.457 518.826V514.434L881.984 491.053Z" fill="#E0E0E0"/>
<path d="M884.629 535.382L881.984 533.847L841.457 557.227V560.297L884.629 535.382Z" fill="#37474F"/>
<path d="M884.629 512.45L881.984 510.915L841.457 534.319V537.389L884.629 512.45Z" fill="#37474F"/>
<path d="M863.941 547.332L861.295 548.867V503.003L863.941 501.468V547.332Z" fill="#37474F"/>
<path d="M842.26 692.764V613.01L885.432 588.071V667.848L842.26 692.764Z" fill="#37474F"/>
<path d="M883.85 666.643V588.992L842.26 613.01V690.662L883.85 666.643Z" fill="#455A64"/>
<path d="M885.432 588.071L883.849 588.992V666.643L885.432 667.848V588.071Z" fill="#263238"/>
</svg>
